<svg xmlns="http://www.w3.org/2000/svg" viewBox="0 0 239.61 314.25"><defs><style>.cls-1{fill:#272727;}.cls-2{fill:#fdfdfd;}</style></defs><title>Asset 7</title><g id="Layer_2" data-name="Layer 2"><g id="Wheat"><path class="cls-1" d="M0,176.44Q0,126.73,0,77C0,67.94,3.8,59.75,12.44,52.7,22.36,44.6,35.17,40,50.85,38.91c4-.27,7.93-.22,11.91-.22q46.41,0,92.82,0c2.35,0,9.69-.12,9.66-1.78-.14-7.75.71-15.11,0-22.83.81-9.24,8.51-17.75,22-12.5,5.7,4.35,5.88,6.9,5.7,12.5-.27,8.49.12,15.42,0,23.92,0,1.43,8.5,2.84,10.56,3.38,18.51,4.94,30.2,13.89,34.87,26.86a21.44,21.44,0,0,1,1.24,7.26q0,100.91,0,201.83c0,17.87-19.85,33.23-46.52,36.31a76.84,76.84,0,0,1-9,.57q-64.19,0-128.37,0c-27.44,0-51-13.63-55.06-31.71A30.52,30.52,0,0,1,0,275.84Q0,226.15,0,176.44Z"/><path class="cls-2" d="M119.48,267.12q-32.81,0-65.63,0c-15.9,0-28.28-9.94-31.67-25.43a35,35,0,0,1-.73-7.51q-.06-62,0-123.95c0-16.14,9.86-28.64,25.31-32.11A33.3,33.3,0,0,1,54,77.36q65.78-.08,131.53,0a31.47,31.47,0,0,1,32,32c.05,41.92-.15,83.85.1,125.77a32.12,32.12,0,0,1-32.22,32.09C163.42,267,141.45,267.12,119.48,267.12Z"/><path class="cls-1" d="M186.45,192.48c.23,29.88-27.4,52.78-56.36,47-3-.59-4-1.91-4.72-4.57-4.33-16.73,5-38.64,20.82-48.82a49.89,49.89,0,0,1,31.17-7.84c7.31.49,8.47,1.74,9.07,9.14C186.57,189.09,186.45,190.79,186.45,192.48Z"/><path class="cls-1" d="M54.08,191.59c.09-12.59.93-13.41,13.68-13.42,30.07,0,52.91,27.29,47.45,56.67-.52,2.8-1.89,4.14-4.78,4.66C80.65,244.89,52.86,221.51,54.08,191.59Z"/><path class="cls-1" d="M139.36,125.4c11.14,19.53,2.71,49.73-16.9,61.08-2.54,1.47-4,.24-5.77-1a48.25,48.25,0,0,1-19.15-50.69c.14-.59,1-4.15,1.06-4.76.93-2.77.93-2.77,1.44-4.31,1.47-4.18,4.31-7.5,6.94-11a6.93,6.93,0,0,1,.68-1.1c.91-1,1.86-1.87,3.36-1.6,1.74.85,1.36,2.49,1.45,4,0,.62.11,1.06.07.45,0,0,.14-.1.2-.18-.09-1.75.53-3.07,2.36-3.22,1.61-.13,2.25,1.26,2.88,2.44a7.3,7.3,0,0,1,.9,5.16,1.42,1.42,0,0,0-.07.42c0,.46.28.54.57.17,1.24-1.6,1.29-3.69,2.19-5.44s1.32-3.77,3.5-4.49c4.91-.44,6.21.86,6.59,6.55C135.54,119.06,136.49,119.89,139.36,125.4Z"/><path class="cls-1" d="M98.6,131c3.7-12,13.86-26.8,19.41-26.8s10.16,4.63,12.94,8.32a75.78,75.78,0,0,1,10.16,16.64"/></g></g></svg>